<svg xmlns="http://www.w3.org/2000/svg" height="510pt" version="1.1" viewBox="0 -32 510.7585 510" width="510pt">
<g id="surface1">
<path d="M 504.792969 218.511719 L 270.125 5.179688 C 261.59375 -1.222656 248.792969 -1.222656 242.394531 5.179688 L 7.726562 218.511719 C -7.207031 231.3125 1.324219 254.777344 20.527344 254.777344 L 63.191406 254.777344 L 63.191406 425.445312 C 63.191406 438.246094 71.726562 446.777344 84.527344 446.777344 L 425.859375 446.777344 C 438.660156 446.777344 447.191406 438.246094 447.191406 425.445312 L 447.191406 254.777344 L 489.859375 254.777344 C 509.058594 254.777344 517.59375 231.3125 504.792969 218.511719 Z M 255.191406 404.113281 C 197.59375 401.980469 150.660156 355.046875 148.527344 297.445312 C 148.527344 267.578125 159.191406 237.710938 180.527344 216.378906 C 184.792969 209.980469 195.460938 212.113281 199.726562 218.511719 L 214.660156 235.578125 L 246.660156 154.511719 C 250.925781 145.980469 263.726562 145.980469 267.992188 154.511719 L 302.125 235.578125 L 312.792969 216.378906 C 317.058594 209.980469 327.726562 209.980469 331.992188 216.378906 C 349.058594 239.84375 361.859375 267.578125 363.992188 297.445312 C 363.992188 355.046875 317.058594 401.980469 259.460938 401.980469 C 257.324219 404.113281 255.191406 404.113281 255.191406 404.113281 Z M 255.191406 404.113281 " style=" stroke:none;fill-rule:nonzero;fill:rgb(0%,0%,0%);fill-opacity:1;" />
<path d="M 255.191406 361.445312 C 231.726562 361.445312 212.527344 342.246094 212.527344 318.777344 C 212.527344 295.3125 255.191406 254.777344 255.191406 254.777344 C 255.191406 254.777344 297.859375 295.3125 297.859375 318.777344 C 297.859375 342.246094 278.660156 361.445312 255.191406 361.445312 Z M 255.191406 361.445312 " style=" stroke:none;fill-rule:nonzero;fill:rgb(0%,0%,0%);fill-opacity:1;" />
</g>
</svg>