<svg xmlns="http://www.w3.org/2000/svg" height="511pt" version="1.1" viewBox="0 -2 511.07068 511" width="511pt">
<g id="surface1">
<path d="M 503.394531 383.542969 L 396.746094 298.222656 C 388.210938 291.820312 377.546875 291.820312 369.015625 298.222656 L 262.363281 383.542969 C 249.566406 396.34375 258.097656 421.941406 277.292969 421.941406 L 298.625 421.941406 L 298.625 507.261719 L 362.617188 507.261719 L 362.617188 421.941406 L 405.273438 421.941406 L 405.273438 507.261719 L 469.265625 507.261719 L 469.265625 421.941406 L 490.597656 421.941406 C 509.796875 421.941406 518.324219 396.34375 503.394531 383.542969 Z M 503.394531 383.542969 " style=" stroke:none;fill-rule:nonzero;fill:rgb(0%,0%,0%);fill-opacity:1;" />
<path d="M 230.367188 336.617188 C 243.164062 338.75 255.964844 328.085938 255.964844 315.285156 C 253.832031 285.425781 234.636719 257.695312 209.035156 244.898438 C 249.566406 223.566406 311.421875 249.164062 313.558594 249.164062 C 328.488281 255.5625 345.554688 240.628906 341.285156 223.566406 C 334.886719 191.570312 319.957031 159.574219 294.355469 138.246094 C 326.351562 131.84375 386.078125 148.910156 418.074219 163.839844 C 435.136719 170.242188 454.335938 151.042969 445.804688 133.980469 C 394.613281 29.460938 309.289062 -17.46875 215.433594 6 C 95.988281 33.726562 0 163.839844 0 293.957031 C 0 372.878906 34.128906 447.535156 91.722656 500.863281 C 95.988281 505.128906 100.25 507.261719 106.652344 507.261719 L 255.964844 507.261719 C 255.964844 507.261719 149.3125 485.929688 149.3125 379.277344 C 147.179688 366.480469 153.578125 353.679688 162.109375 347.28125 C 183.4375 334.484375 206.90625 330.21875 230.367188 336.617188 Z M 230.367188 336.617188 " style=" stroke:none;fill-rule:nonzero;fill:rgb(0%,0%,0%);fill-opacity:1;" />
</g>
</svg>